<svg width="587" height="680" viewBox="0 0 587 680" fill="none" xmlns="http://www.w3.org/2000/svg">
<path d="M370.19 187.78H313.34C312.81 187.78 312.301 187.991 311.926 188.366C311.551 188.741 311.34 189.25 311.34 189.78V217.78C311.34 218.311 311.551 218.819 311.926 219.194C312.301 219.57 312.81 219.78 313.34 219.78H370.19C370.72 219.78 371.229 219.57 371.604 219.194C371.979 218.819 372.19 218.311 372.19 217.78V189.78C372.19 189.25 371.979 188.741 371.604 188.366C371.229 187.991 370.72 187.78 370.19 187.78Z" stroke="#AADAF1" stroke-width="2" stroke-linecap="round" stroke-linejoin="round"/>
<path d="M339.74 155.71H282.9C282.37 155.71 281.861 155.921 281.486 156.296C281.111 156.671 280.9 157.18 280.9 157.71V185.71C280.9 186.24 281.111 186.749 281.486 187.124C281.861 187.499 282.37 187.71 282.9 187.71H339.74C340.27 187.71 340.779 187.499 341.154 187.124C341.529 186.749 341.74 186.24 341.74 185.71V157.71C341.74 157.18 341.529 156.671 341.154 156.296C340.779 155.921 340.27 155.71 339.74 155.71Z" stroke="#AADAF1" stroke-width="2" stroke-linecap="round" stroke-linejoin="round"/>
<path d="M309.29 187.78H252.45C251.92 187.78 251.411 187.991 251.036 188.366C250.661 188.741 250.45 189.25 250.45 189.78V217.78C250.45 218.311 250.661 218.819 251.036 219.194C251.411 219.57 251.92 219.78 252.45 219.78H309.29C309.82 219.78 310.329 219.57 310.704 219.194C311.079 218.819 311.29 218.311 311.29 217.78V189.78C311.29 189.25 311.079 188.741 310.704 188.366C310.329 187.991 309.82 187.78 309.29 187.78Z" stroke="#AADAF1" stroke-width="2" stroke-linecap="round" stroke-linejoin="round"/>
<path d="M399.67 219.84H342.83C342.3 219.84 341.791 220.051 341.416 220.426C341.041 220.801 340.83 221.31 340.83 221.84V249.84C340.83 250.371 341.041 250.879 341.416 251.255C341.791 251.63 342.3 251.84 342.83 251.84H399.67C400.2 251.84 400.709 251.63 401.084 251.255C401.459 250.879 401.67 250.371 401.67 249.84V221.84C401.67 221.31 401.459 220.801 401.084 220.426C400.709 220.051 400.2 219.84 399.67 219.84Z" stroke="#AADAF1" stroke-width="2" stroke-linecap="round" stroke-linejoin="round"/>
<path fill-rule="evenodd" clip-rule="evenodd" d="M305.38 563.85H498C499.273 563.85 500.494 564.356 501.394 565.256C502.294 566.156 502.8 567.377 502.8 568.65V568.65C502.797 569.921 502.29 571.14 501.391 572.038C500.491 572.936 499.271 573.44 498 573.44H305.38C304.109 573.44 302.889 572.936 301.989 572.038C301.09 571.14 300.583 569.921 300.58 568.65V568.65C300.58 567.377 301.086 566.156 301.986 565.256C302.886 564.356 304.107 563.85 305.38 563.85V563.85Z" fill="white"/>
<path fill-rule="evenodd" clip-rule="evenodd" d="M4.79 592.73H197.44C198.069 592.729 198.693 592.852 199.275 593.092C199.856 593.332 200.385 593.685 200.83 594.13C201.275 594.575 201.628 595.104 201.868 595.685C202.108 596.267 202.231 596.891 202.23 597.52V597.52C202.231 598.149 202.108 598.773 201.868 599.355C201.628 599.936 201.275 600.465 200.83 600.91C200.385 601.355 199.856 601.708 199.275 601.948C198.693 602.188 198.069 602.311 197.44 602.31H4.79C3.51961 602.31 2.30126 601.805 1.40296 600.907C0.504659 600.009 0 598.79 0 597.52H0C0 596.25 0.504659 595.031 1.40296 594.133C2.30126 593.235 3.51961 592.73 4.79 592.73V592.73Z" fill="white"/>
<path fill-rule="evenodd" clip-rule="evenodd" d="M424.5 567.59C408.438 567.598 392.73 572.307 379.314 581.137C365.897 589.967 355.359 602.531 349 617.28C343.825 613.106 337.386 610.814 330.738 610.78C324.09 610.745 317.628 612.97 312.41 617.09C308.789 608.466 302.825 601.028 295.192 595.62C287.56 590.213 278.565 587.052 269.228 586.496C259.89 585.94 250.584 588.011 242.364 592.475C234.144 596.939 227.338 603.616 222.72 611.75C217.912 608.778 212.501 606.916 206.882 606.299C201.262 605.683 195.577 606.328 190.238 608.188C184.9 610.047 180.044 613.075 176.024 617.049C172.004 621.023 168.921 625.844 167 631.16C167.88 631.16 168.71 630.91 169.6 630.91H550.31C548.917 625.793 546.227 621.122 542.5 617.349C538.773 613.577 534.135 610.83 529.036 609.375C523.936 607.919 518.547 607.805 513.39 609.043C508.233 610.281 503.484 612.829 499.6 616.44C493.148 601.906 482.62 589.555 469.29 580.885C455.96 572.214 440.402 567.596 424.5 567.59V567.59Z" fill="#DEDEDE"/>
<path fill-rule="evenodd" clip-rule="evenodd" d="M146.37 621.33H581.93C583.201 621.333 584.42 621.84 585.318 622.74C586.216 623.639 586.72 624.859 586.72 626.13V626.13C586.717 627.4 586.212 628.616 585.314 629.514C584.416 630.412 583.2 630.917 581.93 630.92H146.37C145.1 630.917 143.884 630.412 142.986 629.514C142.088 628.616 141.583 627.4 141.58 626.13V626.13C141.58 624.859 142.084 623.639 142.982 622.74C143.88 621.84 145.099 621.333 146.37 621.33V621.33Z" fill="#DEDEDE"/>
<path fill-rule="evenodd" clip-rule="evenodd" d="M75.67 566.4L63 584.15L89.1 616.86L101.1 595.86L75.67 566.4Z" fill="#F77F89"/>
<path fill-rule="evenodd" clip-rule="evenodd" d="M61.83 576.08L31.83 610.74L78.96 665.74C78.96 665.74 110.24 665.4 120.12 665.4C119.92 653.4 111.2 628.54 86.92 629.5C91.82 620.9 95.3 613.81 95.3 613.81L61.83 576.08Z" fill="#6367FD"/>
<path d="M86.9 629.53C73.33 625.34 67.16 630.8 57.64 640.9C50.99 647.96 37.13 647.36 28.64 643.31" stroke="#4C4FD9" stroke-width="2" stroke-linecap="round" stroke-linejoin="round"/>
<path d="M55.8 673.61C60.2721 675.531 64.8901 677.092 69.61 678.28C82.03 667.28 89.38 641.17 87.05 629.53" stroke="#4C4FD9" stroke-width="2" stroke-linecap="round" stroke-linejoin="round"/>
<path d="M49.71 589.72C52.6442 591.941 54.9193 594.918 56.2915 598.333C57.6637 601.747 58.0814 605.471 57.4999 609.105C56.9184 612.738 55.3596 616.146 52.9904 618.961C50.6212 621.777 47.5308 623.896 44.05 625.09" stroke="#4C4FD9" stroke-width="2" stroke-linecap="round" stroke-linejoin="round"/>
<path d="M37.06 604.67L83.45 655.33L117.82 653.33" stroke="#4C4FD9" stroke-width="2" stroke-linecap="round" stroke-linejoin="round"/>
<path fill-rule="evenodd" clip-rule="evenodd" d="M150.46 419.74L71.14 565.11L101.51 600.66L244.84 452.76L213.38 408.3L150.46 419.74Z" fill="#F7D167"/>
<path d="M118 583.65L82.62 544.06" stroke="#FF3274" stroke-width="2" stroke-linecap="round" stroke-linejoin="round"/>
<path fill-rule="evenodd" clip-rule="evenodd" d="M213.37 408.31L150.47 419.75L118.47 478.44L173.4 477.13L191.31 508L244.84 452.78L213.37 408.31Z" fill="#BF9111"/>
<path d="M84.56 580.82C117.06 542.75 216.56 426.72 216.56 426.72" stroke="#FF3274" stroke-width="2" stroke-linecap="round" stroke-linejoin="round"/>
<path fill-rule="evenodd" clip-rule="evenodd" d="M300.58 614.1L310.16 634.1L353.1 626.33L346 602.24L300.58 614.1Z" fill="#F77F89"/>
<path fill-rule="evenodd" clip-rule="evenodd" d="M303.79 634.18L318.46 676.18C318.46 676.18 403.33 659.18 409.78 657.51C397.78 629.31 373.16 634.04 362.36 636.74C359.652 631.603 357.235 626.318 355.12 620.91L303.79 634.18Z" fill="#6367FD"/>
<path d="M361.64 627.08C363.38 621.42 367.42 617.65 370.64 618.65C373.86 619.65 375.1 625.03 373.36 630.65C371.62 636.27 367.58 640.07 364.36 639.08C361.14 638.09 359.9 632.73 361.64 627.08Z" stroke="#4C4FD9" stroke-width="2" stroke-linecap="round" stroke-linejoin="round"/>
<path d="M375.86 626.36C380.36 621.75 385.96 620.3 388.38 623.13C390.8 625.96 389.1 631.99 384.6 636.6C380.1 641.21 374.5 642.67 372.08 639.84C369.66 637.01 371.36 631 375.86 626.36Z" stroke="#4C4FD9" stroke-width="2" stroke-linecap="round" stroke-linejoin="round"/>
<path fill-rule="evenodd" clip-rule="evenodd" d="M298.46 282.88L355.12 604.61L295.76 618.61L217.81 414.07L237.17 271.92L298.46 282.88Z" fill="#F7D167"/>
<path d="M248.43 494.41L220.56 421.27" stroke="#FF3274" stroke-width="2" stroke-linecap="round" stroke-linejoin="round"/>
<path d="M321.57 612.53L230 324.57" stroke="#FF3274" stroke-width="2" stroke-linecap="round" stroke-linejoin="round"/>
<path d="M303.48 311.42C295.48 314.77 254.48 322.34 238.64 320.68" stroke="#FF3274" stroke-width="2" stroke-linecap="round" stroke-linejoin="round"/>
<path fill-rule="evenodd" clip-rule="evenodd" d="M131.55 234.64L239.06 246.05C245.47 246.73 250.06 252.77 249.36 259.55L231.9 424C231.18 430.77 225.41 435.71 219 435L111.49 423.63C105.08 422.95 100.49 416.91 101.19 410.13L118.64 245.68C119.36 238.9 125.14 234 131.55 234.64Z" fill="#6367FD"/>
<path d="M135.08 334.84C135.08 326.731 137.485 318.804 141.99 312.062C146.495 305.32 152.898 300.064 160.39 296.961C167.882 293.858 176.125 293.046 184.079 294.628C192.032 296.21 199.337 300.115 205.071 305.849C210.805 311.583 214.71 318.888 216.292 326.842C217.874 334.795 217.062 343.039 213.959 350.53C210.856 358.022 205.601 364.425 198.858 368.931C192.116 373.436 184.189 375.84 176.08 375.84C165.206 375.84 154.778 371.521 147.089 363.832C139.4 356.143 135.08 345.714 135.08 334.84Z" stroke="#4C4FD9" stroke-width="2" stroke-linecap="round" stroke-linejoin="round"/>
<path fill-rule="evenodd" clip-rule="evenodd" d="M173.44 50.9002C173.44 40.6902 179.19 32.4102 186.29 32.4102C193.39 32.4102 199.15 40.6902 199.15 50.9002C199.15 61.1102 193.39 69.3902 186.29 69.3902C179.19 69.3902 173.44 61.1102 173.44 50.9002Z" fill="#F77F89"/>
<path fill-rule="evenodd" clip-rule="evenodd" d="M180.68 60.6003C180.68 52.477 183.089 44.5361 187.602 37.782C192.116 31.0278 198.53 25.7638 206.036 22.6556C213.541 19.5474 221.799 18.7347 229.766 20.3202C237.733 21.9057 245.051 25.8182 250.794 31.563C256.538 37.3077 260.449 44.6266 262.032 52.5941C263.616 60.5615 262.801 68.8196 259.691 76.324C256.581 83.8284 251.315 90.242 244.56 94.7536C237.805 99.2652 229.863 101.672 221.74 101.67C216.347 101.67 211.007 100.608 206.025 98.5438C201.042 96.4797 196.516 93.4544 192.703 89.6406C188.89 85.8267 185.866 81.2991 183.803 76.3163C181.74 71.3336 180.679 65.9932 180.68 60.6003V60.6003Z" fill="#F77F89"/>
<path fill-rule="evenodd" clip-rule="evenodd" d="M166.78 322.68C164.87 329.05 158.68 342.3 164.57 366.01C153.41 383.26 158.62 395.41 184.18 398.46C188.48 393.21 192.79 389.77 197.59 382.19C199.15 375.37 199.01 364.9 199.15 362.06C199.42 356.32 191.01 333.61 193.1 323.41C195.19 313.21 168.69 316.3 166.78 322.68Z" fill="#F77F89"/>
<path fill-rule="evenodd" clip-rule="evenodd" d="M217.74 115.45C158.66 115.45 136.17 239.6 142.62 319.04C154.87 326.77 203.76 329.78 217.74 326.11C220.74 312.16 221.74 253.78 222.41 244.28C255.04 247.48 249.41 252.53 245.47 296.2C262.47 296.79 285.37 292.2 302.47 285.02C304.87 255.08 287.27 115.45 217.74 115.45Z" fill="#3B4161"/>
<path d="M135.08 242.17L142.88 167.52C144.1 155.843 149.909 145.128 159.029 137.734C168.149 130.339 179.833 126.87 191.51 128.09L199.88 128.96C211.557 130.18 222.272 135.989 229.667 145.109C237.061 154.229 240.53 165.913 239.31 177.59L231.31 254.34" stroke="#6367FD" stroke-width="6.77" stroke-linecap="round" stroke-linejoin="round"/>
<path fill-rule="evenodd" clip-rule="evenodd" d="M193.57 84.6301C196.65 97.8601 197.42 116.49 196.91 123.81C204.74 128.43 225.04 131.64 234.8 118.54C230.18 107.37 229.15 101.97 229.54 95.5401C229.93 89.1101 190.49 71.4001 193.57 84.6301Z" fill="#F77F89"/>
<path fill-rule="evenodd" clip-rule="evenodd" d="M206.66 98.8103C205.79 91.7103 210.9 75.0003 213.82 72.6803C241.27 73.6803 258.31 54.1303 261.08 48.7803C263.642 52.182 265.508 56.056 266.57 60.1803C267.28 62.9003 266.66 64.8103 262.01 68.7103C260.83 84.7403 246.28 110.19 206.66 98.8103Z" fill="white"/>
<path d="M216 74.3702C216 74.3702 191 53.9102 183.74 52.9102" stroke="white" stroke-width="3.05" stroke-linecap="round" stroke-linejoin="round"/>
<path fill-rule="evenodd" clip-rule="evenodd" d="M236.39 52.9402C236.39 49.3802 237.55 46.4902 238.98 46.4902C240.41 46.4902 241.57 49.3802 241.57 52.9402C241.57 56.5002 240.41 59.3902 238.98 59.3902C237.55 59.3902 236.39 56.5002 236.39 52.9402Z" fill="#CB5D66"/>
<path d="M219.94 303.91C210.43 305.28 158.69 303.04 141.58 296" stroke="#737999" stroke-width="2" stroke-linecap="round" stroke-linejoin="round"/>
<path d="M222.41 244.28C221.74 224.71 239.55 161.17 204.35 135.04" stroke="#737999" stroke-width="2" stroke-linecap="round" stroke-linejoin="round"/>
<path d="M222.42 244.17L204.35 251.91" stroke="#737999" stroke-width="2" stroke-linecap="round" stroke-linejoin="round"/>
<path d="M205.14 242.45L222.47 243.67" stroke="#737999" stroke-width="2" stroke-linecap="round" stroke-linejoin="round"/>
<path d="M207.71 230.26L222.49 243.54" stroke="#737999" stroke-width="2" stroke-linecap="round" stroke-linejoin="round"/>
<path fill-rule="evenodd" clip-rule="evenodd" d="M385.984 154.132C390.14 148.698 394.296 142.421 400.554 138.144C410.249 133.147 424.087 107.911 423.007 103.46C421.983 99.2424 417.878 98.7363 415.489 99.1104C413.437 99.4747 410.266 105.194 409.501 106.789C410.339 102.058 410.021 96.0022 407.501 94.6898C404.98 93.3773 401.834 93.4721 400.364 96.3191C397.954 101.02 399.851 105.231 400.168 107.892C399.282 111.451 396.488 119.569 394.791 120.887C393.443 121.142 391.328 121.161 390.433 119.125C389.537 117.089 393.33 111.136 393.403 109.019C392.792 106.502 389.266 103.973 387.048 105.18C384.521 106.555 378.133 116.697 376.824 119.361C375.061 122.949 375.511 129.723 374.708 132.223C373.905 134.723 369.858 140.604 369.132 141.809C368.406 143.014 381.84 159.573 385.984 154.132Z" fill="#F77F89"/>
<path d="M392.063 120.756C399.419 124.353 406.446 111.626 409.771 106.374" stroke="#CB5D66" stroke-width="2" stroke-linecap="round" stroke-linejoin="round"/>
<path fill-rule="evenodd" clip-rule="evenodd" d="M411.061 73.2349L391.401 69.1149C390.049 68.8267 388.638 69.0857 387.476 69.8353C386.314 70.5849 385.496 71.764 385.202 73.1149L377.111 110.615C376.971 111.279 376.963 111.964 377.088 112.631C377.214 113.298 377.47 113.934 377.841 114.502C378.213 115.069 378.693 115.558 379.254 115.94C379.816 116.321 380.447 116.588 381.111 116.725L400.751 120.855C402.104 121.143 403.515 120.884 404.677 120.135C405.839 119.385 406.657 118.206 406.952 116.855L415.081 79.3549C415.222 78.689 415.229 78.0018 415.103 77.3331C414.976 76.6643 414.719 76.0272 414.345 75.4583C413.971 74.8895 413.489 74.4002 412.925 74.0186C412.362 73.637 411.728 73.3707 411.061 73.2349V73.2349Z" fill="#9B9B9B"/>
<path fill-rule="evenodd" clip-rule="evenodd" d="M278 224.045C278 216.045 282.54 181.235 259 149.235C259.782 146.644 260.36 143.996 260.73 141.315C269.36 147.535 301.63 180.315 305.73 185.765C309.46 181.025 328 149.235 351.65 124.035C353.65 123.365 409.57 147.145 410 149.235C410.43 151.325 361 218.461 313.72 233.665C308.62 235.305 303.33 236.165 295 232.045C288.5 229.545 295 232.045 288.5 229.545C278 224.045 288.5 229.545 278 224.045Z" fill="#3B4161"/>
<path d="M302.533 285C304.945 265.201 298.288 213.699 276 162" stroke="#737999" stroke-width="2" stroke-linecap="round" stroke-linejoin="round"/>
<path d="M340 138C356.5 140 391.5 158 400 162.5" stroke="#737999" stroke-width="2" stroke-linecap="round" stroke-linejoin="round"/>
<path d="M280.49 316.83C279.65 311.77 276.63 292.98 276.63 292.98" stroke="#FF3274" stroke-width="2" stroke-linecap="round" stroke-linejoin="round"/>
<path d="M351.59 584.6L286.7 594.84" stroke="#FF3274" stroke-width="2" stroke-linecap="round" stroke-linejoin="round"/>
<path d="M333 478.31C331.851 478.439 330.696 478.503 329.54 478.5C321.883 478.502 314.491 475.698 308.761 470.619C303.03 465.541 299.359 458.539 298.44 450.937C297.522 443.336 299.42 435.661 303.776 429.364C308.131 423.066 314.643 418.583 322.08 416.76" stroke="#FF3274" stroke-width="2" stroke-linecap="round" stroke-linejoin="round"/>
<path d="M315.67 668.21L406.44 651" stroke="#4C4FD9" stroke-width="2" stroke-linecap="round" stroke-linejoin="round"/>
<path d="M308.41 648.48C311.486 647.273 314.811 646.836 318.094 647.206C321.378 647.577 324.522 648.744 327.252 650.606C329.982 652.467 332.216 654.968 333.76 657.889C335.303 660.811 336.11 664.066 336.11 667.37C336.113 669.132 335.888 670.886 335.44 672.59" stroke="#4C4FD9" stroke-width="2" stroke-linecap="round" stroke-linejoin="round"/>
<path d="M207.09 97.31C203.95 96.12 191.33 91.72 184.77 78.5" stroke="white" stroke-width="3.05" stroke-linecap="round" stroke-linejoin="round"/>
<path fill-rule="evenodd" clip-rule="evenodd" d="M172.7 68.4202C172.698 65.8027 173.473 63.2434 174.926 61.0662C176.378 58.889 178.445 57.1918 180.862 56.1892C183.28 55.1866 185.941 54.9237 188.509 55.4339C191.076 55.9441 193.434 57.2043 195.285 59.0552C197.136 60.906 198.396 63.2643 198.906 65.8316C199.416 68.3989 199.154 71.0598 198.151 73.4777C197.148 75.8956 195.451 77.9617 193.274 79.4147C191.097 80.8677 188.538 81.6422 185.92 81.6402C182.415 81.6375 179.054 80.2439 176.575 77.7652C174.096 75.2866 172.703 71.9255 172.7 68.4202V68.4202Z" fill="#F77F89"/>
<path d="M198.57 72.29C197.74 74.9971 196.063 77.3662 193.786 79.0493C191.508 80.7323 188.752 81.6404 185.92 81.64" stroke="#CB5D66" stroke-width="2" stroke-linecap="round" stroke-linejoin="round"/>
<path d="M175.49 60.2902C177.399 57.8386 180.111 56.1388 183.15 55.4902" stroke="#CB5D66" stroke-width="2" stroke-linecap="round" stroke-linejoin="round"/>
<path fill-rule="evenodd" clip-rule="evenodd" d="M207 2.1401C201.338 3.4442 195.988 5.85095 191.256 9.2229C186.524 12.5948 182.502 16.8659 179.421 21.7922C176.34 26.7185 174.26 32.2035 173.299 37.934C172.337 43.6645 172.515 49.5281 173.82 55.1901L260.05 35.3201C258.746 29.6578 256.339 24.3079 252.967 19.5759C249.595 14.8439 245.324 10.8225 240.398 7.74138C235.472 4.66024 229.987 2.57972 224.256 1.61864C218.526 0.657564 212.662 0.834758 207 2.1401V2.1401Z" fill="#F2E283"/>
<path fill-rule="evenodd" clip-rule="evenodd" d="M227.27 28.9301L289.58 14.5701C294.74 13.3701 299.58 15.3801 300.46 19.0301C301.3 22.6901 297.8 26.6201 292.63 27.8201L230.32 42.1801C225.15 43.3701 220.32 41.3701 219.44 37.7101C218.59 34.0501 222.1 30.1201 227.27 28.9301Z" fill="#F2E283"/>
<path d="M162.75 390.42C165.412 387.597 167.8 384.526 169.88 381.25" stroke="#CB5D66" stroke-width="2" stroke-linecap="round" stroke-linejoin="round"/>
<path d="M173.79 396.41C177.99 392.35 184.14 383.78 187.28 378.64" stroke="#CB5D66" stroke-width="2" stroke-linecap="round" stroke-linejoin="round"/>
<path d="M188.21 73.8004C187.489 74.1193 186.709 74.2828 185.92 74.2804C185.041 74.2817 184.174 74.08 183.387 73.6909C182.599 73.3018 181.912 72.7359 181.379 72.0374C180.846 71.3389 180.482 70.5267 180.315 69.6641C180.148 68.8016 180.183 67.9122 180.416 67.0652C180.65 66.2183 181.076 65.4368 181.661 64.7818C182.247 64.1268 182.976 63.616 183.791 63.2892C184.607 62.9625 185.487 62.8287 186.363 62.8983C187.238 62.9679 188.086 63.2389 188.84 63.6904" stroke="#CB5D66" stroke-width="2" stroke-linecap="round" stroke-linejoin="round"/>
<path d="M228.06 2.42018C221.882 0.820694 215.43 0.575995 209.148 1.70285C202.867 2.82971 196.903 5.30148 191.665 8.94875C186.428 12.596 182.042 17.3325 178.806 22.8337C175.57 28.3348 173.563 34.4705 172.92 40.8202" stroke="#FF3274" stroke-width="2" stroke-linecap="round" stroke-linejoin="round"/>
<path d="M261.08 48.7803C263.642 52.182 265.508 56.056 266.57 60.1803C267.28 62.9003 266.66 64.8103 262.01 68.7103C261.09 81.1403 252.14 99.2303 229.7 101.43" stroke="#C9C9C9" stroke-width="2" stroke-linecap="round" stroke-linejoin="round"/>
<path fill-rule="evenodd" clip-rule="evenodd" d="M441.26 36.1699H452.79C453.33 36.1699 453.79 36.8099 453.79 37.5999V44.7899C453.79 45.5799 453.34 46.2099 452.79 46.2099H441.26C440.71 46.2099 440.26 45.5799 440.26 44.7899V37.5999C440.27 36.8099 440.71 36.1699 441.26 36.1699Z" fill="#FF3274"/>
<path fill-rule="evenodd" clip-rule="evenodd" d="M458.77 41.6502V46.0702C458.77 46.2002 458.68 46.2502 458.58 46.1902L454.74 44.0002L450.91 41.7902C450.8 41.7302 450.8 41.6302 450.91 41.5702L454.74 39.3502L458.58 37.1402C458.598 37.1265 458.621 37.1186 458.644 37.1174C458.667 37.1161 458.69 37.1217 458.71 37.1333C458.731 37.145 458.747 37.1622 458.757 37.183C458.768 37.2038 458.772 37.2271 458.77 37.2502V41.6502Z" fill="#FF3274"/>
<path d="M432.51 41.1899C432.51 37.8277 433.507 34.5409 435.375 31.7453C437.243 28.9496 439.898 26.7707 443.004 25.484C446.11 24.1973 449.529 23.8607 452.826 24.5166C456.124 25.1725 459.153 26.7916 461.531 29.1691C463.908 31.5466 465.527 34.5757 466.183 37.8734C466.839 41.1711 466.502 44.5892 465.216 47.6956C463.929 50.8019 461.75 53.4569 458.954 55.3249C456.159 57.1929 452.872 58.1899 449.51 58.1899C445.001 58.1899 440.677 56.3989 437.489 53.2108C434.301 50.0226 432.51 45.6986 432.51 41.1899Z" stroke="#FF3274" stroke-width="2" stroke-linecap="round" stroke-linejoin="round"/>
<path d="M477.34 15.8701H187.71" stroke="#9B9B9B" stroke-width="2" stroke-linecap="round" stroke-linejoin="round"/>
<path d="M203.65 8.2302C203.648 7.53358 203.853 6.85205 204.238 6.27187C204.624 5.6917 205.173 5.23897 205.816 4.97102C206.459 4.70307 207.167 4.63193 207.85 4.76662C208.534 4.90131 209.162 5.23576 209.655 5.72764C210.149 6.21952 210.485 6.84671 210.622 7.52979C210.758 8.21288 210.689 8.92114 210.423 9.56492C210.157 10.2087 209.706 10.759 209.127 11.1463C208.547 11.5335 207.867 11.7402 207.17 11.7402C206.238 11.7402 205.344 11.3707 204.684 10.7128C204.025 10.0548 203.653 9.16202 203.65 8.2302V8.2302Z" stroke="#FF3274" stroke-width="2" stroke-linecap="round" stroke-linejoin="round"/>
<path d="M217.51 8.2302C217.508 7.53358 217.713 6.85205 218.098 6.27187C218.484 5.6917 219.033 5.23897 219.676 4.97102C220.319 4.70307 221.027 4.63193 221.71 4.76662C222.394 4.90131 223.022 5.23576 223.515 5.72764C224.009 6.21952 224.345 6.84671 224.481 7.52979C224.618 8.21288 224.549 8.92114 224.283 9.56492C224.017 10.2087 223.565 10.759 222.986 11.1463C222.407 11.5335 221.726 11.7402 221.03 11.7402C220.568 11.7415 220.11 11.6517 219.683 11.4759C219.256 11.3001 218.868 11.0417 218.541 10.7157C218.214 10.3896 217.955 10.0022 217.778 9.57573C217.601 9.14922 217.51 8.69198 217.51 8.2302V8.2302Z" stroke="#FF3274" stroke-width="2" stroke-linecap="round" stroke-linejoin="round"/>
<path d="M231.4 8.2302C231.398 7.53358 231.603 6.85205 231.988 6.27187C232.374 5.6917 232.923 5.23897 233.566 4.97102C234.209 4.70307 234.917 4.63193 235.6 4.76662C236.284 4.90131 236.912 5.23576 237.405 5.72764C237.899 6.21952 238.235 6.84671 238.372 7.52979C238.508 8.21288 238.439 8.92114 238.173 9.56492C237.907 10.2087 237.456 10.759 236.877 11.1463C236.297 11.5335 235.617 11.7402 234.92 11.7402C233.988 11.7402 233.094 11.3707 232.434 10.7128C231.775 10.0548 231.403 9.16202 231.4 8.2302V8.2302Z" stroke="#FF3274" stroke-width="2" stroke-linecap="round" stroke-linejoin="round"/>
<path opacity="0.25" fill-rule="evenodd" clip-rule="evenodd" d="M210.73 0H454.32C460.881 0 467.174 2.60653 471.814 7.24618C476.453 11.8858 479.06 18.1785 479.06 24.74V148.81C479.06 155.371 476.453 161.664 471.814 166.304C467.174 170.943 460.881 173.55 454.32 173.55H210.73C204.17 173.547 197.88 170.94 193.243 166.3C188.605 161.661 186 155.37 186 148.81V24.74C185.999 21.4916 186.637 18.2747 187.88 15.2732C189.122 12.2716 190.943 9.54424 193.24 7.24678C195.536 4.94933 198.263 3.12684 201.264 1.88342C204.265 0.639991 207.482 -2.6558e-07 210.73 0Z" fill="white"/>
</svg>
