<svg width="558" height="426" viewBox="0 0 558 426" fill="none" xmlns="http://www.w3.org/2000/svg">
<path d="M209.04 308.96L173.59 419.91" stroke="#8DC5E0" stroke-width="4" stroke-miterlimit="10" stroke-linecap="round"/>
<path d="M209.04 308.96L244.49 419.91" stroke="#8DC5E0" stroke-width="4" stroke-miterlimit="10" stroke-linecap="round"/>
<path d="M185.23 383.48L224.75 358.14" stroke="#8DC5E0" stroke-width="2" stroke-miterlimit="10" stroke-linecap="round"/>
<path d="M193.17 358.14L232.7 383.48" stroke="#8DC5E0" stroke-width="2" stroke-miterlimit="10" stroke-linecap="round"/>
<path d="M271.15 188.86C270.99 193.78 271.06 211.01 270.25 218.38" stroke="#1F161E" stroke-miterlimit="10" stroke-linecap="round"/>
<path d="M209.04 322.91C243.895 322.91 272.15 316.664 272.15 308.96C272.15 301.256 243.895 295.01 209.04 295.01C174.185 295.01 145.93 301.256 145.93 308.96C145.93 316.664 174.185 322.91 209.04 322.91Z" fill="#AADAF1"/>
<path d="M271.15 211.25L288.29 205.1C287.55 173.83 280.24 103.96 269.86 93.5702C267.42 91.1402 219.16 86.9001 210.55 86.9001C159.17 86.9001 143.93 92.7602 140.06 96.6402C128.06 108.64 124.32 164.24 124.32 183.71C124.32 203.18 179.32 213.28 179.32 213.28L243.79 217.71C243.79 217.71 257.93 219.17 270.16 219.89C270.43 216.14 271.15 211.25 271.15 211.25Z" fill="#6367FD"/>
<path d="M322.22 229.38C326.91 227.99 373.55 220.38 383.71 230.38C393.87 240.38 425.85 383.75 425.85 387.05H400.1L365.34 312.24" fill="#1F161E"/>
<path d="M152.41 216.63C151.24 222.48 144.21 228.76 144.21 260.63C144.21 304.7 180.31 305.63 193.27 305.63C233.65 305.63 298.98 293.63 303.39 291.43C306.32 296.33 360.25 406.43 360.5 408.89H385.33C385.33 408.89 369.94 244.17 342.17 225.49C333.15 219.49 173.12 213.07 152.41 216.63Z" fill="#3B4161"/>
<path d="M297.81 184.41C291.29 184.41 285.91 185.96 271.15 188.86L270.38 217.1C284.38 211.46 287.63 203.62 291.69 203.62C301.83 203.62 307.13 208.85 313.12 208.85C317.3 208.85 324.82 205.57 324.82 201.11C324.82 191.77 305.89 184.41 297.81 184.41Z" fill="#F77F89"/>
<path d="M401.56 385.07C401.56 387.45 400.17 402.39 402.94 403.78C405.71 405.17 436.16 405.99 437.54 404.61C438.92 403.23 439.75 400.32 438.54 399.49C437.33 398.66 425.54 396.3 423.94 395.19C422.34 394.08 420.13 388.19 420.94 385.07" fill="#1F161E"/>
<path d="M219.64 93.5501C219.64 97.3201 197.75 97.4301 197.75 93.5501V62.8901H219.64V93.5501Z" fill="#F77F89"/>
<path d="M212.51 73.0002C210.51 73.0002 197.75 78.6401 197.75 81.7901V65.1501C200.93 65.1501 212.51 73.0002 212.51 73.0002Z" fill="#1F161E"/>
<path d="M216.74 74.3C231.376 74.3 243.24 62.4356 243.24 47.8C243.24 33.1645 231.376 21.3 216.74 21.3C202.104 21.3 190.24 33.1645 190.24 47.8C190.24 62.4356 202.104 74.3 216.74 74.3Z" fill="#F77F89"/>
<path d="M244.09 27C240.81 32.21 233.95 34.6001 226.52 34.6001C220.19 34.6001 210.97 32.76 204.41 36.5C200.86 38.5 196.79 43.05 195.97 52.16C195.97 53.72 194.2 59.77 194.2 61.72C194.2 63.05 192.7 63.92 190.2 63.92C188.91 63.92 186.36 61.83 186.36 58.64C186.36 54.95 187.83 53.64 187.83 50.51C187.83 47.38 184 44.37 184 35.67C184 23.14 192 15.42 197.66 15.42C202.82 15.42 204.44 16.6201 205.09 17.1301C205.09 5.74005 220.09 0.540039 226.04 0.540039C232.84 0.540039 236.04 3.33005 236.04 6.88005C236.04 12.5401 233.34 17.35 231.97 18.43C235.071 15.6404 239.099 14.1041 243.27 14.12C251.06 14.12 253.68 19.2401 253.68 22.7401C253.68 30.3501 244.55 37.4 241.15 37.4C240.295 35.5903 239.291 33.8545 238.15 32.2101" fill="#1F161E"/>
<path d="M196.79 56.9501C199.911 56.9501 202.44 54.4206 202.44 51.3002C202.44 48.1797 199.911 45.6501 196.79 45.6501C193.67 45.6501 191.14 48.1797 191.14 51.3002C191.14 54.4206 193.67 56.9501 196.79 56.9501Z" fill="#F77F89"/>
<path d="M243.5 52.6601C245.919 52.6601 247.88 51.6393 247.88 50.3801C247.88 49.1209 245.919 48.1001 243.5 48.1001C241.081 48.1001 239.12 49.1209 239.12 50.3801C239.12 51.6393 241.081 52.6601 243.5 52.6601Z" fill="#FCD7D8"/>
<path d="M215.95 52.6601C218.369 52.6601 220.33 51.6393 220.33 50.3801C220.33 49.1209 218.369 48.1001 215.95 48.1001C213.531 48.1001 211.57 49.1209 211.57 50.3801C211.57 51.6393 213.531 52.6601 215.95 52.6601Z" fill="#FCD7D8"/>
<path d="M232.8 45.6501C233.62 46.8201 237.8 51.7302 233.39 53.7202" stroke="#1F161E" stroke-miterlimit="10" stroke-linecap="round"/>
<path d="M224.56 59.4501C223.24 59.4501 221.21 57.8101 220.14 56.3401" stroke="#1F161E" stroke-miterlimit="10" stroke-linecap="round"/>
<path d="M259.5 130.62C261.5 134.87 271.15 175.87 271.15 188.86" stroke="#F2F2F2" stroke-miterlimit="10" stroke-linecap="round"/>
<path d="M124.32 180.41C124.32 226.5 124.75 239.87 143.25 239.87C185.89 239.87 250.35 204.87 261.84 204.87C271.99 204.87 277.29 210.11 283.28 210.11C287.45 210.11 294.97 206.82 294.97 202.37C294.97 193.02 276.04 185.66 267.97 185.66C249.8 185.66 177.29 203.18 175.52 203.18C173.75 203.18 170.77 202.41 170.77 199.43C170.77 194.02 174.31 181.52 174.77 180.43L124.32 180.41Z" fill="#F77F89"/>
<path d="M185.42 140.21C184.2 143.72 174.69 179.99 173.59 184.41" stroke="#F2F2F2" stroke-miterlimit="10" stroke-linecap="round"/>
<path d="M546.458 420.747C547.177 423.481 549.977 425.116 552.712 424.397C555.447 423.678 557.081 420.878 556.362 418.143L505.163 223.401C504.444 220.666 501.644 219.032 498.91 219.751C496.175 220.47 494.541 223.27 495.26 226.004L546.458 420.747Z" fill="#969696"/>
<path d="M494.751 226.013C495.47 223.278 493.836 220.478 491.101 219.759C488.366 219.04 485.566 220.674 484.847 223.409L433.649 418.151C432.93 420.886 434.564 423.686 437.299 424.405C440.033 425.124 442.833 423.49 443.552 420.755L494.751 226.013Z" fill="#969696"/>
<path d="M424.102 226.011C424.821 223.277 423.187 220.477 420.452 219.758C417.718 219.039 414.918 220.673 414.199 223.408L363 418.15C362.281 420.885 363.915 423.685 366.65 424.404C369.385 425.123 372.185 423.488 372.904 420.754L424.102 226.011Z" fill="#D8D8D8"/>
<path d="M474.919 417.152C475.626 419.895 478.423 421.546 481.166 420.839C483.909 420.132 485.559 417.335 484.852 414.592L434.512 219.273C433.805 216.53 431.009 214.88 428.266 215.587C425.523 216.294 423.873 219.09 424.579 221.833L474.919 417.152Z" fill="#D8D8D8"/>
<path d="M135.681 226.017C136.4 223.282 134.766 220.482 132.032 219.763C129.297 219.044 126.497 220.678 125.778 223.413L74.5793 418.155C73.8603 420.89 75.4944 423.69 78.2292 424.409C80.964 425.128 83.7638 423.494 84.4828 420.759L135.681 226.017Z" fill="#969696"/>
<path d="M186.519 420.759C187.238 423.494 190.038 425.128 192.773 424.409C195.507 423.69 197.142 420.89 196.423 418.156L145.224 223.413C144.505 220.679 141.705 219.045 138.97 219.764C136.236 220.483 134.601 223.282 135.32 226.017L186.519 420.759Z" fill="#969696"/>
<path d="M526.27 210.14H31.1001C28.5982 210.14 26.5701 212.168 26.5701 214.67V220.76C26.5701 223.262 28.5982 225.29 31.1001 225.29H526.27C528.772 225.29 530.8 223.262 530.8 220.76V214.67C530.8 212.168 528.772 210.14 526.27 210.14Z" fill="#D8D8D8"/>
<path d="M62.5064 226.02C63.2254 223.285 61.5913 220.485 58.8565 219.766C56.1217 219.047 53.3219 220.681 52.603 223.416L1.40427 418.158C0.685289 420.893 2.3194 423.693 5.05417 424.412C7.78893 425.131 10.5887 423.497 11.3077 420.762L62.5064 226.02Z" fill="#D8D8D8"/>
<path d="M113.344 420.76C114.063 423.494 116.862 425.128 119.597 424.409C122.332 423.691 123.966 420.891 123.247 418.156L72.0483 223.414C71.3293 220.679 68.5295 219.045 65.7948 219.764C63.06 220.483 61.4259 223.283 62.1448 226.017L113.344 420.76Z" fill="#D8D8D8"/>
<path d="M315.76 206.09H250.85V210.14H315.76V206.09Z" fill="#8DC5E0"/>
<path d="M397.28 210.14H304.77L321.53 152.5C321.949 151.109 322.806 149.891 323.974 149.028C325.142 148.165 326.558 147.702 328.01 147.71H406.51C407.541 147.693 408.562 147.918 409.491 148.366C410.42 148.813 411.231 149.472 411.861 150.289C412.49 151.106 412.92 152.058 413.116 153.071C413.312 154.083 413.269 155.127 412.99 156.12L397.28 210.14Z" fill="#AADAF1"/>
<path d="M362.38 184.58C365.506 184.58 368.04 182.046 368.04 178.92C368.04 175.794 365.506 173.26 362.38 173.26C359.254 173.26 356.72 175.794 356.72 178.92C356.72 182.046 359.254 184.58 362.38 184.58Z" fill="white"/>
</svg>
