<svg width="766" height="995" viewBox="0 0 766 995" fill="none" xmlns="http://www.w3.org/2000/svg">
<path d="M114.526 648.608C113.676 656.898 97.586 776.488 94.256 805.468C90.926 834.448 69.316 910.018 63.146 920.498C69.596 924.498 88.716 935.178 88.716 935.178C88.716 935.178 146.996 845.378 149.376 836.828C151.756 828.278 161.886 786.938 161.886 786.938L147.946 640.608L114.526 648.608Z" fill="#3B4161"/>
<path d="M511.686 180.688C570.746 231.128 616.296 296.688 614.286 359.438C612.276 422.188 562.846 482.578 520.166 537.608C477.486 592.638 441.426 642.068 387.836 675.548C334.246 709.028 263.256 726.018 205.356 705.428C147.456 684.838 102.616 626.838 74.1659 565.338C45.7159 503.838 33.2159 438.748 55.6359 391.768C78.0559 344.788 135.376 315.768 183.226 263.458C231.076 211.148 269.576 135.148 325.006 115.018C380.436 94.8879 452.776 130.258 511.686 180.688Z" fill="#93C3F1"/>
<path d="M107.186 497.018C103.266 491.498 94.376 467.718 94.376 463.018C94.376 458.318 121.376 364.218 123.076 356.218C124.776 348.218 124.726 325.588 123.076 318.138C123.796 315.358 125.706 314.458 126.206 316.138C127.516 317.198 134.966 321.668 134.966 321.668C134.966 321.668 152.386 345.668 148.496 351.088C145.31 355.385 142.521 359.964 140.166 364.768C139.226 370.818 125.476 448.768 126.166 453.768C126.856 458.768 140.706 483.978 141.066 485.768C138.076 487.358 108.946 498.868 107.186 497.018Z" fill="#F77F89"/>
<path d="M549.996 3.28399e-05L75.6362 121.971L184.464 545.214L658.824 423.243L549.996 3.28399e-05Z" fill="#EAF0FF"/>
<path d="M199.412 90.1366L75.6377 121.962L184.465 545.205L308.239 513.379L199.412 90.1366Z" fill="#6367FD"/>
<path d="M153.286 206.978C175.151 206.978 192.876 189.253 192.876 167.388C192.876 145.523 175.151 127.798 153.286 127.798C131.421 127.798 113.696 145.523 113.696 167.388C113.696 189.253 131.421 206.978 153.286 206.978Z" fill="#EAF0FF"/>
<path d="M215.64 215.079L122.616 238.998L124.914 247.937L217.938 224.018L215.64 215.079Z" fill="#EAF0FF"/>
<path d="M221.177 236.601L128.153 260.52L130.451 269.459L223.475 245.54L221.177 236.601Z" fill="#EAF0FF"/>
<path d="M329.216 275.878C335.291 275.878 340.216 270.953 340.216 264.878C340.216 258.803 335.291 253.878 329.216 253.878C323.141 253.878 318.216 258.803 318.216 264.878C318.216 270.953 323.141 275.878 329.216 275.878Z" fill="#6367FD"/>
<path d="M530.179 208.423L353.854 253.761L356.153 262.7L532.477 217.362L530.179 208.423Z" fill="#D8DFFF"/>
<path d="M490.183 52.8243L277.289 107.566L313.256 247.446L526.151 192.704L490.183 52.8243Z" fill="white"/>
<path d="M380.086 473.748C386.161 473.748 391.086 468.823 391.086 462.748C391.086 456.673 386.161 451.748 380.086 451.748C374.011 451.748 369.086 456.673 369.086 462.748C369.086 468.823 374.011 473.748 380.086 473.748Z" fill="#6367FD"/>
<path d="M581.064 406.291L404.739 451.629L407.038 460.568L583.362 415.23L581.064 406.291Z" fill="#D8DFFF"/>
<path d="M541.056 250.693L328.162 305.434L364.129 445.314L577.024 390.573L541.056 250.693Z" fill="white"/>
<path d="M58.2557 928.238L48.4057 945.588L36.0757 955.088L69.7757 994.258H97.4257L79.4157 966.458L82.4557 942.008" fill="#9B9B9B"/>
<path d="M184.856 955.878L189.696 973.418L186.286 994.258H260.686L217.006 968.468L218.066 955.878" fill="#9B9B9B"/>
<path d="M172.366 943.788H221.676" stroke="#1B3C87" stroke-width="2" stroke-linecap="round" stroke-linejoin="round"/>
<path d="M172.366 951.878H221.676" stroke="#1B3C87" stroke-width="2" stroke-linecap="round" stroke-linejoin="round"/>
<path d="M247.606 990.258H256.686L213.006 964.468L214.066 951.878" stroke="#1B3C87" stroke-width="2" stroke-linecap="round" stroke-linejoin="round"/>
<path d="M180.856 951.878L185.696 969.418L182.286 990.258H225.916" stroke="#1B3C87" stroke-width="2" stroke-linecap="round" stroke-linejoin="round"/>
<path d="M51.8159 912.138L86.6459 931.948" stroke="#1B3C87" stroke-width="2" stroke-linecap="round" stroke-linejoin="round"/>
<path d="M48.356 920.878L83.196 940.698" stroke="#1B3C87" stroke-width="2" stroke-linecap="round" stroke-linejoin="round"/>
<path d="M77.796 966.138L75.416 962.458L78.456 938.008" stroke="#1B3C87" stroke-width="2" stroke-linecap="round" stroke-linejoin="round"/>
<path d="M47.6257 935.908L44.4057 941.588L32.0757 951.088L65.7757 990.258H93.4257L86.2857 979.238" stroke="#1B3C87" stroke-width="2" stroke-linecap="round" stroke-linejoin="round"/>
<path d="M129.266 655.858C129.266 660.858 133.426 720.298 147.666 767.358C157.076 812.298 184.366 948.788 184.366 948.788H219.066L206.576 643.888L129.266 655.858Z" fill="#3B4161"/>
<path d="M161.886 856.708C170.966 901.788 179.366 943.788 179.366 943.788H214.066L201.576 638.888L124.266 650.888C124.266 655.888 128.426 715.328 142.666 762.388C144.806 772.598 147.866 787.528 151.316 804.518" stroke="white" stroke-width="2" stroke-linecap="round" stroke-linejoin="round"/>
<path d="M248.096 521.398C256.096 525.638 281.556 537.148 284.626 537.148C287.696 537.148 331.626 522.648 333.946 518.218C336.266 513.788 338.666 501.988 342.686 500.808C346.706 499.628 344.436 510.008 344.436 510.008C346.816 509.228 384.386 499.438 384.216 499.638C385.216 505.018 364.886 520.268 362.766 520.818C352.316 532.538 287.246 569.018 284.416 569.018C281.586 569.018 237.626 557.018 234.856 556.018C235.406 551.928 244.296 524.288 248.096 521.398Z" fill="#F77F89"/>
<path d="M141.766 552.078C127.936 558.078 96.7656 508.358 103.546 500.448C113.026 489.548 139.726 481.158 148.876 484.688C153.496 491.018 165.286 541.928 141.766 552.078Z" fill="#F7D167"/>
<path d="M137.766 548.078C123.936 554.078 92.7656 504.358 99.5456 496.448C109.026 485.548 135.726 477.158 144.876 480.688C149.496 487.018 161.286 537.928 137.766 548.078Z" stroke="#FF3274" stroke-width="2" stroke-linecap="round" stroke-linejoin="round"/>
<path d="M170.006 492.588C216.096 492.588 219.636 584.058 206.876 654.958C194.466 659.958 124.276 662.048 112.576 650.698C108.326 635.108 93.196 492.598 170.006 492.588Z" fill="#F7D167"/>
<path d="M108.506 552.088C115.026 518.308 130.936 488.588 166.006 488.588C197.566 488.588 209.176 531.488 209.266 581.298" stroke="#FF3274" stroke-width="2" stroke-linecap="round" stroke-linejoin="round"/>
<path d="M111.306 648.608C110.312 648.1 109.393 647.457 108.576 646.698C107.096 641.288 104.316 620.608 104.516 595.898" stroke="#FF3274" stroke-width="2" stroke-linecap="round" stroke-linejoin="round"/>
<path d="M207.856 613.368C206.766 626.128 205.056 638.838 202.856 650.958C195.856 653.738 170.786 655.628 147.996 654.758" stroke="#FF3274" stroke-width="2" stroke-linecap="round" stroke-linejoin="round"/>
<path d="M177.746 512.428C182.056 496.848 245.516 503.938 247.646 514.928C250.486 530.168 239.496 558.178 230.276 563.488C221.766 563.138 170.406 538.948 177.746 512.428Z" fill="#F7D167"/>
<path d="M240.006 506.878C242.096 508.128 243.406 509.498 243.686 510.928C246.526 526.168 235.536 554.178 226.316 559.488C223.596 559.378 206.826 551.938 198.686 547.668" stroke="#FF3274" stroke-width="2" stroke-linecap="round" stroke-linejoin="round"/>
<path d="M173.076 514.928C172.934 512.739 173.16 510.542 173.746 508.428C176.466 498.608 202.646 497.788 222.186 501.278" stroke="#FF3274" stroke-width="2" stroke-linecap="round" stroke-linejoin="round"/>
<path d="M173.406 502.918C173.406 506.988 147.606 507.508 147.606 502.918V466.318H173.406V502.918Z" fill="#F77F89"/>
<path d="M166.486 474.298C181.055 474.298 192.866 458.767 192.866 439.608C192.866 420.449 181.055 404.918 166.486 404.918C151.917 404.918 140.106 420.449 140.106 439.608C140.106 458.767 151.917 474.298 166.486 474.298Z" fill="#F77F89"/>
<path d="M135.536 443.388C135.536 415.758 144.706 389.308 153.946 389.308C163.186 389.308 158.096 402.418 158.096 402.418C161.936 394.738 173.806 382.868 178.996 382.868C184.186 382.868 185.446 390.868 180.126 399.028C182.438 396.452 185.236 394.357 188.359 392.864C191.482 391.371 194.869 390.509 198.326 390.328C204.326 390.328 205.106 397.448 205.106 404.458C205.106 416.848 179.106 435.868 176.176 439.148C175.946 443.218 172.556 476.328 164.306 476.328C156.056 476.328 135.536 474.298 135.536 443.388Z" fill="black"/>
<path d="M177.376 451.818C182.01 451.818 185.766 448.061 185.766 443.428C185.766 438.794 182.01 435.038 177.376 435.038C172.742 435.038 168.986 438.794 168.986 443.428C168.986 448.061 172.742 451.818 177.376 451.818Z" fill="#F77F89"/>
<path d="M659.416 108.758H604.176L631.796 156.588L659.416 108.758Z" stroke="#6367FD" stroke-width="2" stroke-linecap="round" stroke-linejoin="round"/>
<path d="M46.89 180.117L27.1177 167.379L2.00005 206.369L21.7724 219.107L46.89 180.117Z" stroke="#6367FD" stroke-width="2" stroke-linecap="round" stroke-linejoin="round"/>
<path d="M513.88 650.548L386.394 604.197L299.317 843.699L426.803 890.05L513.88 650.548Z" fill="#EAF0FF"/>
<path d="M380.086 632.078C392.877 632.078 403.246 621.709 403.246 608.918C403.246 596.127 392.877 585.758 380.086 585.758C367.295 585.758 356.926 596.127 356.926 608.918C356.926 621.709 367.295 632.078 380.086 632.078Z" stroke="#6367FD" stroke-width="2" stroke-linecap="round" stroke-linejoin="round"/>
<path d="M692.836 491.078L688.626 577.578L765.646 537.968L692.836 491.078Z" fill="#EAF0FF"/>
</svg>
