<svg width="1083" height="643" viewBox="0 0 1083 643" fill="none" xmlns="http://www.w3.org/2000/svg">
<path d="M841.15 641C841.32 637.36 841.43 633.71 841.43 630C841.43 454.65 653.07 312.5 420.72 312.5C188.37 312.5 0 454.68 0 630C0 633.68 0.11 637.33 0.28 641H841.15Z" fill="#E2E2E2"/>
<path d="M1081.72 641C1081.84 638.43 1081.93 635.85 1081.93 633.25C1081.93 509.4 941.28 409 767.78 409C594.28 409 453.63 509.4 453.63 633.25C453.63 635.85 453.71 638.43 453.84 641H1081.72Z" fill="#EFEFEF"/>
<path d="M161.93 641C162.503 637.61 162.791 634.178 162.79 630.74C162.79 603.45 145.04 581.33 123.14 581.33C101.24 581.33 83.5 603.45 83.5 630.74C83.4993 634.178 83.787 637.61 84.36 641H161.93Z" fill="#3EA389"/>
<path d="M816.16 641C816.733 637.61 817.021 634.178 817.02 630.74C817.02 603.45 799.27 581.33 777.37 581.33C755.47 581.33 737.72 603.45 737.72 630.74C737.719 634.178 738.007 637.61 738.58 641H816.16Z" fill="#3EA389"/>
<g filter="url(#filter0_d)">
<path d="M967.88 182.02L852.87 641H1082.89L967.88 182.02Z" fill="#3EA389"/>
</g>
<path d="M686.74 327.54C666.22 347.09 742.51 417.77 753.6 408.08C764.69 398.39 706.79 308.44 686.74 327.54Z" fill="#73CAE5"/>
<path d="M695.38 337.33C703.98 344.78 743.38 387.72 753.6 408.08" stroke="#DAD9D8" stroke-width="2" stroke-miterlimit="10" stroke-linecap="round"/>
<path d="M314.71 349.63C344.21 363.05 347.59 412.8 342.23 423.92C333.66 441.68 302.47 467.38 294.08 485.12C290.48 492.74 260.03 572.12 231.71 562.86C206.5 554.59 192.71 518.09 206.95 492.7C227.95 455.16 236.41 405.08 243.85 391.7C253.67 374.11 286 336.57 314.71 349.63Z" fill="#50B89D"/>
<path d="M221.15 638.71C221.15 620.53 232.15 475.06 284.47 415.64" stroke="#DAD9D8" stroke-width="3" stroke-miterlimit="10" stroke-linecap="round"/>
<path d="M265.85 443.2L254.52 399.86" stroke="#DAD9D8" stroke-width="3" stroke-miterlimit="10" stroke-linecap="round"/>
<path d="M273.18 526.08L298.04 516.03" stroke="#FBDC8E" stroke-width="3" stroke-miterlimit="10" stroke-linecap="round"/>
<path d="M499 139.54C502.5 140.18 511.85 141.48 518.67 140.18C525.49 138.88 524.93 124.44 516.51 124.23C508.09 124.02 499 139.54 499 139.54Z" fill="#1F161E"/>
<path d="M452.1 323.61C449.49 331.45 424.1 434.67 419.19 439.61C414.28 444.55 276.8 515.82 276.8 515.82L286.13 539.42C286.13 539.42 430.2 493.42 437.66 489.35C445.12 485.28 501.92 435.44 510.58 414.5C519.24 393.56 462.05 323.32 452.1 323.61Z" fill="#A9A7A7"/>
<path d="M590.12 604.71C590.12 607.08 588.73 622.03 591.5 623.41C594.27 624.79 624.72 625.63 626.1 624.24C627.48 622.85 628.32 619.95 627.1 619.12C625.88 618.29 614.1 615.94 612.5 614.83C610.9 613.72 608.69 607.83 609.5 604.71" fill="#1F161E"/>
<path d="M277.84 518.09C275.65 519 261.31 523.45 261.1 526.54C260.89 529.63 271.78 558.07 273.59 558.81C275.4 559.55 278.4 559.22 278.69 557.75C278.98 556.28 276.69 544.52 277.06 542.62C277.43 540.72 282.06 536.43 285.27 535.99" fill="#1F161E"/>
<path d="M584.81 264.77C581.86 265.63 558.15 271.53 555.69 271.53C553.23 271.53 549.79 295.35 552.25 295.11C554.71 294.87 585.8 285.54 593.54 284.8C601.28 284.06 584.81 264.77 584.81 264.77Z" fill="#F77F89"/>
<path d="M498.1 161.61C515.79 159.95 548.44 168.45 558.72 174.34C578.96 185.94 555.6 335.51 545.1 346.61C535.71 350.33 456.1 331.61 452.1 323.61C454.23 307.61 485.79 252.15 488.79 249.15C486.79 247.15 477.79 236.15 477.79 236.15C477.79 236.15 485.88 225.29 486.79 224.67C484.21 222.95 458.43 202.59 457 201.44C462.15 193.82 492.15 162.17 498.1 161.61Z" fill="#3B4161"/>
<path d="M523.49 291.51C522.1 288.12 479.37 238.14 477.83 236.13C480.16 232.89 484.02 227.91 487.19 224.18C474.99 215.28 461.9 205.18 457.19 201.1C457.1 201.2 457.06 201.31 456.97 201.42C454.84 203.97 435.84 232.42 435.84 236.42C435.84 240.42 493.99 297.05 501.25 299.82C508.51 302.59 524.88 294.91 523.49 291.51Z" fill="#F77F89"/>
<path d="M530.645 308.01C535.33 300.845 532.765 290.877 524.916 285.745C517.068 280.612 506.907 282.26 502.222 289.425C497.537 296.589 500.102 306.558 507.951 311.69C515.8 316.822 525.96 315.175 530.645 308.01Z" fill="#F77F89"/>
<path d="M591.67 287.58C599.292 287.58 605.47 281.401 605.47 273.78C605.47 266.158 599.292 259.98 591.67 259.98C584.049 259.98 577.87 266.158 577.87 273.78C577.87 281.401 584.049 287.58 591.67 287.58Z" fill="#F77F89"/>
<path d="M545.1 346.61C545.1 346.61 585.55 425.97 591.74 442.47C597.93 458.97 613 605.7 613 605.7C613 605.7 592.85 608.08 587.43 605.7C582.01 603.32 559.54 496.58 547.15 474.7C528.29 441.45 425.84 379.44 452.07 323.56" fill="#C4C4C4"/>
<path d="M514.82 169.78C514.36 172.38 535.5 176.18 535.97 173.57L540.69 147.25L519.55 143.45L514.82 169.78Z" fill="#F77F89"/>
<path d="M533.36 154.27C531.3 153.9 517.05 157.36 516.47 160.61L519.55 143.45C522.84 144 533.36 154.27 533.36 154.27Z" fill="#1F161E"/>
<path d="M541.48 157.13C558.12 157.13 571.61 143.64 571.61 127C571.61 110.36 558.12 96.8701 541.48 96.8701C524.84 96.8701 511.35 110.36 511.35 127C511.35 143.64 524.84 157.13 541.48 157.13Z" fill="#F77F89"/>
<path d="M573.286 139.013C573.555 137.518 571.445 135.889 568.575 135.374C565.705 134.859 563.16 135.654 562.892 137.148C562.624 138.643 564.734 140.273 567.604 140.788C570.474 141.302 573.018 140.508 573.286 139.013Z" fill="#FA9E9F"/>
<path d="M540.622 133.155C540.89 131.66 538.781 130.031 535.91 129.516C533.04 129.001 530.496 129.796 530.228 131.291C529.96 132.785 532.069 134.415 534.939 134.93C537.809 135.444 540.354 134.65 540.622 133.155Z" fill="#FA9E9F"/>
<path d="M556.41 130.2C557.14 131.76 561.08 138.47 555.41 139.89" stroke="#1F161E" stroke-width="1.2" stroke-miterlimit="10" stroke-linecap="round"/>
<path d="M543.7 144.81C542.15 144.48 540.08 142.16 539.12 140.18" stroke="#1F161E" stroke-width="1.2" stroke-miterlimit="10" stroke-linecap="round"/>
<path d="M485.54 226.16C488.29 223.09 498.54 210.41 502.95 206.85" stroke="#1F161E" stroke-miterlimit="10" stroke-linecap="round"/>
<g filter="url(#filter1_d)">
<path d="M545.6 86.6699C537.6 86.6699 513.85 82.7499 508.07 78.6699C505.77 80.2799 497.29 90.0699 490.95 102.67L503.41 112.39L488.62 107.7C485.698 114.203 484.003 121.191 483.62 128.31C488.46 137.59 500.31 140.18 502.46 140.18C516.46 140.18 519.06 118.11 525.67 114.59C536.89 108.59 552.24 118.59 569.6 115.65C572.39 107.25 564.76 86.6699 545.6 86.6699Z" fill="#7E3E03"/>
</g>
<path d="M513.45 132.46C517.294 132.46 520.41 129.344 520.41 125.5C520.41 121.656 517.294 118.54 513.45 118.54C509.606 118.54 506.49 121.656 506.49 125.5C506.49 129.344 509.606 132.46 513.45 132.46Z" fill="#F77F89"/>
<path d="M489.81 290.93C487.24 288.58 463.76 292.15 458.81 304.54C465.32 290.29 471.42 278.54 473.23 275.68C475.16 277.52 489.81 290.93 489.81 290.93Z" fill="#1F161E"/>
<path d="M562 272.33C561.45 276.33 565.07 291.68 572.54 289.71L558.85 293.45L562 272.33Z" fill="#1F161E"/>
<path d="M136.46 135C177.16 135 190.9 162.6 190.9 181.78C190.9 221.78 182.24 212.86 182.24 254.21C182.24 298.63 239.16 354.74 239.16 431.48C239.16 536.38 147.59 551.76 136.46 551.76C78.72 551.76 57.26 488.22 57.26 449.68C57.26 404.03 97.48 355.11 97.48 311.09C97.48 278.89 86.96 266.38 86.96 216.46C87 166.3 116 135 136.46 135Z" fill="#73CAE5"/>
<path d="M133.41 638.71V201.1" stroke="#DAD9D8" stroke-width="3" stroke-miterlimit="10" stroke-linecap="round"/>
<path d="M133.41 485.12L201.21 415.64" stroke="#DAD9D8" stroke-width="3" stroke-miterlimit="10" stroke-linecap="round"/>
<path d="M131.72 290.11L109.88 268.27" stroke="#DAD9D8" stroke-width="3" stroke-miterlimit="10" stroke-linecap="round"/>
<path d="M133.41 231.54L163.9 201.05" stroke="#DAD9D8" stroke-width="3" stroke-miterlimit="10" stroke-linecap="round"/>
<path d="M726.12 264.77C764.84 254.25 779.12 405.9 759.56 410.32C740 414.74 703.9 270.81 726.12 264.77Z" fill="#50B89D"/>
<path d="M735 290.11C738.16 299.29 755.82 363.64 759.61 410.32" stroke="#DAD9D8" stroke-width="2" stroke-miterlimit="10" stroke-linecap="round"/>
<path d="M873.84 241.5C882.76 241.5 892.59 255.89 893.23 260.89C895.04 274.99 889.42 284.43 889.74 290.11C890.46 302.78 895.16 314.11 891.68 321.02C871.15 361.92 801.17 352.87 792.83 366.94C790.69 370.94 784.54 383.56 784.54 383.56C781.29 380.31 773.06 358.04 773.06 349.35C773.06 340.66 785.12 316.76 808.78 299.71C821.29 290.7 844.27 241.5 873.84 241.5Z" fill="#73CAE5"/>
<path d="M777.37 405.65C779.98 396.65 805.45 319.65 869.14 284.06" stroke="#DAD9D8" stroke-width="2" stroke-miterlimit="10" stroke-linecap="round"/>
<path d="M847.15 299C847.65 295.25 850.21 287.46 847.15 275.94" stroke="#DAD9D8" stroke-width="2" stroke-miterlimit="10" stroke-linecap="round"/>
<path d="M831.69 313.23C832.23 307.15 831.69 298.51 829.52 293.6" stroke="#DAD9D8" stroke-width="2" stroke-miterlimit="10" stroke-linecap="round"/>
<path d="M817.42 329.67C828.032 328.199 838.827 328.759 849.23 331.32" stroke="#DAD9D8" stroke-width="2" stroke-miterlimit="10" stroke-linecap="round"/>
<path d="M858.46 325.9L782.17 641H934.75L858.46 325.9Z" fill="#50B89D"/>
<g filter="url(#filter2_d)">
<path d="M123.93 641C123.93 631.6 140.93 599 169.93 599C198.26 599 204.77 609.38 228.28 609.38C245.84 609.38 244.64 602.46 261.11 602.46C294.79 602.46 307.89 629.16 307.89 641.03L123.93 641Z" fill="#50B89D"/>
</g>
<path d="M858.46 425.59V641" stroke="#DAD9D8" stroke-width="3" stroke-miterlimit="10" stroke-linecap="round"/>
<path d="M967.88 313.23V641" stroke="#DAD9D8" stroke-width="3" stroke-miterlimit="10" stroke-linecap="round"/>
<path d="M858.46 506.07L878.7 485.83" stroke="#DAD9D8" stroke-width="3" stroke-miterlimit="10" stroke-linecap="round"/>
<path d="M858.46 593.48L826.98 562" stroke="#DAD9D8" stroke-width="3" stroke-miterlimit="10" stroke-linecap="round"/>
<path d="M967.88 406.86L944.86 383.84" stroke="#DAD9D8" stroke-width="3" stroke-miterlimit="10" stroke-linecap="round"/>
<path d="M967.88 539.37L1013.74 493.5" stroke="#DAD9D8" stroke-width="3" stroke-miterlimit="10" stroke-linecap="round"/>
<path d="M83.5 66.1C83.5 51.53 119.68 48.44 133.97 48.44C162.97 48.44 164.9 31.84 188.97 31.84C210.13 31.84 220.9 48.97 240.62 48.97C282.94 48.97 292.36 0.26001 333.51 0.26001C375.37 0.26001 373.24 51.11 412.2 51.11C432.01 51.11 551.02 54.86 551.02 66.11L83.5 66.1Z" fill="white"/>
<path d="M660 127.71C660 118.5 691.36 104.09 708.51 104.09C742.34 104.09 731.78 115.9 753.06 115.9C777.31 115.9 782.85 63.3101 819.75 63.3101C860.08 63.3101 853.75 114.74 878.5 114.74C889.16 114.74 894.5 109.74 909.66 109.74C918.44 109.74 928.06 118.52 928.06 127.74L660 127.71Z" fill="white"/>
<defs>
<filter id="filter0_d" x="848.87" y="182.02" width="238.02" height="466.98" filterUnits="userSpaceOnUse" color-interpolation-filters="sRGB">
<feFlood flood-opacity="0" result="BackgroundImageFix"/>
<feColorMatrix in="SourceAlpha" type="matrix" values="0 0 0 0 0 0 0 0 0 0 0 0 0 0 0 0 0 0 127 0"/>
<feOffset dy="4"/>
<feGaussianBlur stdDeviation="2"/>
<feColorMatrix type="matrix" values="0 0 0 0 0 0 0 0 0 0 0 0 0 0 0 0 0 0 0.25 0"/>
<feBlend mode="normal" in2="BackgroundImageFix" result="effect1_dropShadow"/>
<feBlend mode="normal" in="SourceGraphic" in2="effect1_dropShadow" result="shape"/>
</filter>
<filter id="filter1_d" x="479.62" y="78.6699" width="94.5376" height="69.51" filterUnits="userSpaceOnUse" color-interpolation-filters="sRGB">
<feFlood flood-opacity="0" result="BackgroundImageFix"/>
<feColorMatrix in="SourceAlpha" type="matrix" values="0 0 0 0 0 0 0 0 0 0 0 0 0 0 0 0 0 0 127 0"/>
<feOffset dy="4"/>
<feGaussianBlur stdDeviation="2"/>
<feColorMatrix type="matrix" values="0 0 0 0 0 0 0 0 0 0 0 0 0 0 0 0 0 0 0.25 0"/>
<feBlend mode="normal" in2="BackgroundImageFix" result="effect1_dropShadow"/>
<feBlend mode="normal" in="SourceGraphic" in2="effect1_dropShadow" result="shape"/>
</filter>
<filter id="filter2_d" x="119.93" y="599" width="191.96" height="50.03" filterUnits="userSpaceOnUse" color-interpolation-filters="sRGB">
<feFlood flood-opacity="0" result="BackgroundImageFix"/>
<feColorMatrix in="SourceAlpha" type="matrix" values="0 0 0 0 0 0 0 0 0 0 0 0 0 0 0 0 0 0 127 0"/>
<feOffset dy="4"/>
<feGaussianBlur stdDeviation="2"/>
<feColorMatrix type="matrix" values="0 0 0 0 0 0 0 0 0 0 0 0 0 0 0 0 0 0 0.25 0"/>
<feBlend mode="normal" in2="BackgroundImageFix" result="effect1_dropShadow"/>
<feBlend mode="normal" in="SourceGraphic" in2="effect1_dropShadow" result="shape"/>
</filter>
</defs>
</svg>
